# xmcd
#
# Track frame offsets:
#	150
#	24757
#	45342
#	70062
#	84630
#	105637
#	127300
#	148280
#	160972
#	191447
#	209155
#	231287
#	249285
#	271025
#	287837
#	300482
#
# Disc length: 4257 seconds
#
# Revision: 1
# Processed by: cddbd v1.5.1PL0 Copyright (c) Steve Scherf et al.
# Submitted via: CDex 1.50Beta5
#
DISCID=e3109f10
DTITLE=Various Artist - NEW MUSIC BEST SELECTION  6
DYEAR=1900
DGENRE=New Age
TTITLE0=杏 里/オリビアを聞きながら
TTITLE1=杏 里/BOOGIE WOOGIE MAINLAND
TTITLE2=杏 里/最後のサーフホリデー
TTITLE3=井上陽水/いっそ セレナーデ
TTITLE4=井上陽水/飾りじゃないのよ 涙は
TTITLE5=井上陽水/新しいラプソディ
TTITLE6=吉田拓郎/唇をかみしめて
TTITLE7=吉田拓郎/結婚しようよ
TTITLE8=吉田拓郎/祭りのあと
TTITLE9=今井美紀/彼女とTIP ON DUO
TTITLE10=今井美紀/野生の風
TTITLE11=今井美紀/とっておきの朝を
TTITLE12=憂歌団/わかれのうた
TTITLE13=原田真二/キャンディ
TTITLE14=泉谷しげる/春夏秋冬
TTITLE15=MICA/人間なんて
EXTD=
EXTT0=
EXTT1=
EXTT2=
EXTT3=
EXTT4=
EXTT5=
EXTT6=
EXTT7=
EXTT8=
EXTT9=
EXTT10=
EXTT11=
EXTT12=
EXTT13=
EXTT14=
EXTT15=
PLAYORDER=
